<!-- Copyright 2000-2023 JetBrains s.r.o. and contributors. Use of this source code is governed by the Apache 2.0 license. -->
<svg width="14" height="14" viewBox="0 0 14 14" fill="none" xmlns="http://www.w3.org/2000/svg">
    <path fill-rule="evenodd" clip-rule="evenodd" d="M14 7C14 10.866 10.866 14 7 14C3.13401 14 0 10.866 0 7C0 3.13401 3.13401 0 7 0C10.866 0 14 3.13401 14 7ZM12.5 7C12.5 10.0376 10.0376 12.5 7 12.5C5.75168 12.5 4.60048 12.0841 3.67742 11.3834L11.3834 3.67742C12.0841 4.60048 12.5 5.75168 12.5 7ZM2.61675 10.3227L10.3227 2.61675C9.39962 1.91592 8.24838 1.5 7 1.5C3.96243 1.5 1.5 3.96243 1.5 7C1.5 8.24838 1.91592 9.39962 2.61675 10.3227Z" fill="#CED0D6"/>
    <g transform="translate(-1, 8) scale(0.9)">
        <svg width="16" height="16" viewBox="0 0 16 16" fill="none" xmlns="http://www.w3.org/2000/svg">
            <g clip-path="url(#clip0_2772_38639)">
                <path fill-rule="evenodd" clip-rule="evenodd" d="M10.1464 0.146447C10.3417 -0.0488155 10.6583 -0.0488155 10.8536 0.146447L13 2.29289L15.1464 0.146447C15.3417 -0.0488155 15.6583 -0.0488155 15.8536 0.146447C16.0488 0.341709 16.0488 0.658291 15.8536 0.853553L13.7071 3L15.8536 5.14645C16.0488 5.34171 16.0488 5.65829 15.8536 5.85355C15.6583 6.04882 15.3417 6.04882 15.1464 5.85355L13 3.70711L10.8536 5.85355C10.6583 6.04882 10.3417 6.04882 10.1464 5.85355C9.95118 5.65829 9.95118 5.34171 10.1464 5.14645L12.2929 3L10.1464 0.853553C9.95118 0.658291 9.95118 0.341709 10.1464 0.146447Z" fill="#DB5C5C"/>
            </g>
            <defs>
                <clipPath id="clip0_2772_38639">
                    <rect width="16" height="16" fill="white"/>
                </clipPath>
            </defs>
        </svg>
    </g>
</svg>
