<!-- Copyright 2000-2022 JetBrains s.r.o. and contributors. Use of this source code is governed by the Apache 2.0 license. -->
<svg width="16" height="16" viewBox="0 0 16 16" fill="none" xmlns="http://www.w3.org/2000/svg">
    <path d="M8.10584 4.34613L8.25344 4.5H8.46667H13C13.8284 4.5 14.5 5.17157 14.5 6V12.1333C14.5 12.9529 13.932 13.5 13.3667 13.5H2.63333C2.06804 13.5 1.5 12.9529 1.5 12.1333V3.86667C1.5 3.04707 2.06804 2.5 2.63333 2.5H6.1217C6.25792 2.5 6.38824 2.55557 6.48253 2.65387L8.10584 4.34613Z" fill="#43454A" stroke="#CED0D6"/>
    <g transform="translate(9, 9) scale(0.5)">
        <svg width="14" height="14" viewBox="0 0 14 14" fill="none" xmlns="http://www.w3.org/2000/svg">
            <path d="M12 6.13399C12.6667 6.51889 12.6667 7.48114 12 7.86604L3 13.0622C2.33333 13.4471 1.5 12.966 1.5 12.1962L1.5 1.80386C1.5 1.03406 2.33333 0.552935 3 0.937835L12 6.13399Z" fill="#253627" stroke="#57965C"/>
        </svg>
    </g>
</svg>
