<!-- Combined Runnable Class Icon -->
<svg width="16" height="16" viewBox="0 0 16 16" fill="none" xmlns="http://www.w3.org/2000/svg">
    <!-- Class Icon -->
    <circle cx="8" cy="8" r="6.5" fill="#25324D" stroke="#548AF7"/>
    <path d="M8.13295 11.5C9.61223 11.5 10.8836 10.6105 11.2075 9.33909H10.2213C9.90229 10.0739 9.11914 10.6057 8.13295 10.6057C6.77936 10.6057 5.80284 9.51796 5.80284 8C5.80284 6.48204 6.77936 5.39434 8.13295 5.39434C9.11914 5.39434 9.90229 5.92611 10.2213 6.66091H11.2075C10.8836 5.3895 9.61223 4.5 8.13295 4.5C6.21859 4.5 4.79248 5.99378 4.79248 8C4.79248 10.0062 6.21859 11.5 8.13295 11.5Z" fill="#548AF7"/>

    <!-- Run Icon -->
    <g transform="translate(10, 0) scale(0.4)">
        <path d="M12 6.13399C12.6667 6.51889 12.6667 7.48114 12 7.86604L3 13.0622C2.33333 13.4471 1.5 12.966 1.5 12.1962L1.5 1.80386C1.5 1.03406 2.33333 0.552935 3 0.937835L12 6.13399Z" fill="#253627" stroke="#57965C"/>
    </g>
</svg>
